<svg width="139" height="24" viewBox="0 0 139 24" fill="none" xmlns="http://www.w3.org/2000/svg">
<path d="M44.0625 18H42.5547L36.8281 9.23438V18H35.3203V6.625H36.8281L42.5703 15.4297V6.625H44.0625V18ZM46.1172 13.6953C46.1172 12.8672 46.2786 12.1224 46.6016 11.4609C46.9297 10.7995 47.3828 10.2891 47.9609 9.92969C48.5443 9.57031 49.2083 9.39062 49.9531 9.39062C51.1042 9.39062 52.0339 9.78906 52.7422 10.5859C53.4557 11.3828 53.8125 12.4427 53.8125 13.7656V13.8672C53.8125 14.6901 53.6536 15.4297 53.3359 16.0859C53.0234 16.737 52.5729 17.2448 51.9844 17.6094C51.401 17.974 50.7292 18.1562 49.9688 18.1562C48.8229 18.1562 47.8932 17.7578 47.1797 16.9609C46.4714 16.1641 46.1172 15.1094 46.1172 13.7969V13.6953ZM47.5703 13.8672C47.5703 14.8047 47.7865 15.5573 48.2188 16.125C48.6562 16.6927 49.2396 16.9766 49.9688 16.9766C50.7031 16.9766 51.2865 16.6901 51.7188 16.1172C52.151 15.5391 52.3672 14.7318 52.3672 13.6953C52.3672 12.7682 52.1458 12.0182 51.7031 11.4453C51.2656 10.8672 50.6823 10.5781 49.9531 10.5781C49.2396 10.5781 48.6641 10.862 48.2266 11.4297C47.7891 11.9974 47.5703 12.8099 47.5703 13.8672ZM57.5859 7.5V9.54688H59.1641V10.6641H57.5859V15.9062C57.5859 16.2448 57.6562 16.5 57.7969 16.6719C57.9375 16.8385 58.1771 16.9219 58.5156 16.9219C58.6823 16.9219 58.9115 16.8906 59.2031 16.8281V18C58.8229 18.1042 58.4531 18.1562 58.0938 18.1562C57.4479 18.1562 56.9609 17.9609 56.6328 17.5703C56.3047 17.1797 56.1406 16.625 56.1406 15.9062V10.6641H54.6016V9.54688H56.1406V7.5H57.5859ZM64.3672 18.1562C63.2214 18.1562 62.2891 17.7812 61.5703 17.0312C60.8516 16.276 60.4922 15.2682 60.4922 14.0078V13.7422C60.4922 12.9036 60.651 12.1562 60.9688 11.5C61.2917 10.8385 61.7396 10.3229 62.3125 9.95312C62.8906 9.57812 63.5156 9.39062 64.1875 9.39062C65.2865 9.39062 66.1406 9.7526 66.75 10.4766C67.3594 11.2005 67.6641 12.237 67.6641 13.5859V14.1875H61.9375C61.9583 15.0208 62.2005 15.6953 62.6641 16.2109C63.1328 16.7214 63.7266 16.9766 64.4453 16.9766C64.9557 16.9766 65.388 16.8724 65.7422 16.6641C66.0964 16.4557 66.4062 16.1797 66.6719 15.8359L67.5547 16.5234C66.8464 17.612 65.7839 18.1562 64.3672 18.1562ZM64.1875 10.5781C63.6042 10.5781 63.1146 10.7917 62.7188 11.2188C62.3229 11.6406 62.0781 12.2344 61.9844 13H66.2188V12.8906C66.1771 12.1562 65.9792 11.5885 65.625 11.1875C65.2708 10.7812 64.7917 10.5781 64.1875 10.5781ZM74.2656 15.7578C74.2656 15.3672 74.1172 15.0651 73.8203 14.8516C73.5286 14.6328 73.0156 14.4453 72.2812 14.2891C71.5521 14.1328 70.9714 13.9453 70.5391 13.7266C70.112 13.5078 69.7943 13.2474 69.5859 12.9453C69.3828 12.6432 69.2812 12.2839 69.2812 11.8672C69.2812 11.1745 69.5729 10.5885 70.1562 10.1094C70.7448 9.63021 71.4948 9.39062 72.4062 9.39062C73.3646 9.39062 74.1406 9.63802 74.7344 10.1328C75.3333 10.6276 75.6328 11.2604 75.6328 12.0312H74.1797C74.1797 11.6354 74.0104 11.2943 73.6719 11.0078C73.3385 10.7214 72.9167 10.5781 72.4062 10.5781C71.8802 10.5781 71.4688 10.6927 71.1719 10.9219C70.875 11.151 70.7266 11.4505 70.7266 11.8203C70.7266 12.1693 70.8646 12.4323 71.1406 12.6094C71.4167 12.7865 71.9141 12.9557 72.6328 13.1172C73.3568 13.2786 73.9427 13.4714 74.3906 13.6953C74.8385 13.9193 75.1693 14.1901 75.3828 14.5078C75.6016 14.8203 75.7109 15.2031 75.7109 15.6562C75.7109 16.4115 75.4089 17.0182 74.8047 17.4766C74.2005 17.9297 73.4167 18.1562 72.4531 18.1562C71.776 18.1562 71.1771 18.0365 70.6562 17.7969C70.1354 17.5573 69.7266 17.224 69.4297 16.7969C69.138 16.3646 68.9922 15.8984 68.9922 15.3984H70.4375C70.4635 15.8828 70.6562 16.2682 71.0156 16.5547C71.3802 16.8359 71.8594 16.9766 72.4531 16.9766C73 16.9766 73.4375 16.8672 73.7656 16.6484C74.099 16.4245 74.2656 16.1276 74.2656 15.7578ZM88.7188 13.8672C88.7188 15.1589 88.4219 16.1979 87.8281 16.9844C87.2344 17.7656 86.4375 18.1562 85.4375 18.1562C84.3698 18.1562 83.5443 17.7786 82.9609 17.0234L82.8906 18H81.5625V6H83.0078V10.4766C83.5911 9.7526 84.3958 9.39062 85.4219 9.39062C86.4479 9.39062 87.2526 9.77865 87.8359 10.5547C88.4245 11.3307 88.7188 12.3932 88.7188 13.7422V13.8672ZM87.2734 13.7031C87.2734 12.7188 87.0833 11.9583 86.7031 11.4219C86.3229 10.8854 85.776 10.6172 85.0625 10.6172C84.1094 10.6172 83.4245 11.0599 83.0078 11.9453V15.6016C83.4505 16.487 84.1406 16.9297 85.0781 16.9297C85.7708 16.9297 86.3099 16.6615 86.6953 16.125C87.0807 15.5885 87.2734 14.7812 87.2734 13.7031ZM93.2188 15.8828L95.1875 9.54688H96.7344L93.3359 19.3047C92.8099 20.7109 91.974 21.4141 90.8281 21.4141L90.5547 21.3906L90.0156 21.2891V20.1172L90.4062 20.1484C90.8958 20.1484 91.276 20.0495 91.5469 19.8516C91.8229 19.6536 92.0495 19.2917 92.2266 18.7656L92.5469 17.9062L89.5312 9.54688H91.1094L93.2188 15.8828ZM105.578 12.9297C104.292 12.5599 103.354 12.1068 102.766 11.5703C102.182 11.0286 101.891 10.362 101.891 9.57031C101.891 8.67448 102.247 7.9349 102.961 7.35156C103.68 6.76302 104.612 6.46875 105.758 6.46875C106.539 6.46875 107.234 6.61979 107.844 6.92188C108.458 7.22396 108.932 7.64062 109.266 8.17188C109.604 8.70312 109.773 9.28385 109.773 9.91406H108.266C108.266 9.22656 108.047 8.6875 107.609 8.29688C107.172 7.90104 106.555 7.70312 105.758 7.70312C105.018 7.70312 104.44 7.86719 104.023 8.19531C103.612 8.51823 103.406 8.96875 103.406 9.54688C103.406 10.0104 103.602 10.4036 103.992 10.7266C104.388 11.0443 105.057 11.3359 106 11.6016C106.948 11.8672 107.688 12.1615 108.219 12.4844C108.755 12.8021 109.151 13.1745 109.406 13.6016C109.667 14.0286 109.797 14.5312 109.797 15.1094C109.797 16.0312 109.438 16.7708 108.719 17.3281C108 17.8802 107.039 18.1562 105.836 18.1562C105.055 18.1562 104.326 18.0078 103.648 17.7109C102.971 17.4089 102.448 16.9974 102.078 16.4766C101.714 15.9557 101.531 15.3646 101.531 14.7031H103.039C103.039 15.3906 103.292 15.9349 103.797 16.3359C104.307 16.7318 104.987 16.9297 105.836 16.9297C106.628 16.9297 107.234 16.7682 107.656 16.4453C108.078 16.1224 108.289 15.6823 108.289 15.125C108.289 14.5677 108.094 14.138 107.703 13.8359C107.312 13.5286 106.604 13.2266 105.578 12.9297ZM113.859 14.0859L112.953 15.0312V18H111.508V6H112.953V13.2578L113.727 12.3281L116.359 9.54688H118.117L114.828 13.0781L118.5 18H116.805L113.859 14.0859ZM121.18 18H119.734V9.54688H121.18V18ZM119.617 7.30469C119.617 7.07031 119.688 6.8724 119.828 6.71094C119.974 6.54948 120.188 6.46875 120.469 6.46875C120.75 6.46875 120.964 6.54948 121.109 6.71094C121.255 6.8724 121.328 7.07031 121.328 7.30469C121.328 7.53906 121.255 7.73438 121.109 7.89062C120.964 8.04688 120.75 8.125 120.469 8.125C120.188 8.125 119.974 8.04688 119.828 7.89062C119.688 7.73438 119.617 7.53906 119.617 7.30469ZM125.07 18H123.625V6H125.07V18ZM128.961 18H127.516V6H128.961V18ZM132.641 16.8203H137.586V18H130.875V16.9375L135.539 10.7422H130.945V9.54688H137.352V10.5703L132.641 16.8203Z" fill="black"/>
<path d="M4 19.5C4 18.837 4.26339 18.2011 4.73223 17.7322C5.20107 17.2634 5.83696 17 6.5 17H20" stroke="#FB6900" stroke-width="2" stroke-linecap="round" stroke-linejoin="round"/>
<path d="M6.5 2H20V22H6.5C5.83696 22 5.20107 21.7366 4.73223 21.2678C4.26339 20.7989 4 20.163 4 19.5V4.5C4 3.83696 4.26339 3.20107 4.73223 2.73223C5.20107 2.26339 5.83696 2 6.5 2V2Z" stroke="#FB6900" stroke-width="2" stroke-linecap="round" stroke-linejoin="round"/>
</svg>
